 http://img163.imageshack.us/img163/7003/92000583561362284855.jpg

Country.......: United Kingdom, Germany, USA
Genre.........: Adventure, Action, Drama
Date release..: 04.03.2011 [World]
Director......: Jonathan English
Writers.......: Jonathan English, Erick Kastel
Duration......: 121 min.
More..........: http://www.imdb.com/title/tt1233301
Trailer.......: http://www.imdb.com/video/imdb/vi4273052697
Trailer.......:

Pilot :
In 13th-century England, a small group of Knights Templar fight to defend Rochester Castle against the tyrannical King John. 

Cats :
Kate Mara   	 ...  	Lady Isabel
Paul Giamatti 	... 	King John
Jason Flemyng 	... 	Beckett
James Purefoy 	... 	Marshall
Brian Cox 	... 	Albany
Charles Dance 	... 	Archbishop Langton
Derek Jacobi 	... 	Cornhill
Mackenzie Crook 	... 	Marks
Vladimir Kulich 	... 	Tiberius
Bree Condon 	... 	Agnes
Jamie Foreman 	... 	Coteral
Aneurin Barnard 	... 	Guy
Guy Siner 	... 	Captain Oaks
Steffan Rhodri 	... 	Cooper
Daniel OMeara 	... 	Phipps 

Data Technical :
!!! SAMPLE !!!
Audio.....: English
Subtitles.: Polish .srt
Format                           : Matroska
File size                        : 5.46 GiB
Duration                         : 2h 0mn
Overall bit rate                 : 6 483 Kbps
Encoded date                     : UTC 2011-07-09 20:21:43
Writing application              : mkvmerge v4.7.0 ('Just Like You Imagined') built on Apr 21 2011 01:13:14
Writing library                  : libebml v1.2.0 + libmatroska v1.1.0
Video
ID                               : 1
Format                           : AVC
Format/Info                      : Advanced Video Codec
Format profile                   : High@L4.1
Format settings, CABAC           : Yes
Format settings, ReFrames        : 5 frames
Muxing mode                      : Container profile=Unknown@4.1
Codec ID                         : V_MPEG4/ISO/AVC
Duration                         : 2h 0mn
Bit rate                         : 4 976 Kbps
Width                            : 1 280 pixels
Height                           : 720 pixels
Display aspect ratio             : 16:9
Frame rate                       : 24.000 fps
Color space                      : YUV
Chroma subsampling               : 4:2:0
Bit depth                        : 8 bits
Scan type                        : Progressive
Bits/(Pixel*Frame)               : 0.225
Stream size                      : 4.08 GiB (75%)
Writing library                  : x264 core 115 r2008 4c552d8
Audio
ID                               : 2
Format                           : DTS
Format/Info                      : Digital Theater Systems
Muxing mode                      : Header stripping
Codec ID                         : A_DTS
Duration                         : 2h 0mn
Bit rate mode                    : Constant
Bit rate                         : 1 510 Kbps
Channel(s)                       : 6 channels
Channel positions                : Front: L C R, Side: L R, LFE
Sampling rate                    : 48.0 KHz
Bit depth                        : 24 bits
Stream size                      : 1.27 GiB (23%)

Screen : 
http://img691.imageshack.us/img691/2001/ironclad2011s1.png 
http://img12.imageshack.us/img12/5810/ironclad2011s2.png 
http://img718.imageshack.us/img718/9523/ironclad2011s3.png 
http://img146.imageshack.us/img146/3250/ironclad2011s4.png 
http://img228.imageshack.us/img228/6640/ironclad2011s5.png